<svg width="200" height="200" viewBox="0 0 200 200" fill="none" xmlns="http://www.w3.org/2000/svg">
<g id="paper-plane" clip-path="url(#clip0)">
<g id="Group">
<g id="Group_2">
<path id="Vector" d="M58.4376 172.558L87.1365 141.308L80.9888 125.26C80.9888 125.26 62.4993 127.864 61.9783 129.426C61.4575 130.989 59.895 151.822 59.6345 155.468C59.3743 159.114 58.4376 172.558 58.4376 172.558Z" fill="#5C546A"/>
</g>
<g id="Group_3">
<path id="Vector_2" d="M199.127 15.0196C198.26 14.1223 196.948 13.8293 195.788 14.2567L2.03789 86.1318C0.853904 86.5713 0.0511678 87.6791 0.00233955 88.9408C-0.0464887 90.2025 0.667575 91.3701 1.81523 91.8994L36.6696 107.984C39.3798 109.237 41.3481 111.731 41.9341 114.658L53.186 170.925C53.4454 172.216 54.486 173.208 55.7892 173.403C57.0708 173.588 58.3739 172.953 59.0028 171.793L76.7673 138.804C77.2494 137.908 78.1041 137.317 79.1111 137.186C80.1275 137.055 81.0947 137.401 81.7904 138.143L125.848 184.954C126.446 185.587 127.27 185.937 128.124 185.937C128.311 185.937 128.5 185.92 128.686 185.886C129.73 185.696 130.606 184.989 131.012 184.009L199.762 18.384C200.238 17.2368 199.988 15.9153 199.127 15.0196Z" fill="#B9BBC1"/>
</g>
<g id="Group_4">
<path id="Vector_3" d="M197.734 14.2051L39.5419 110.135C40.7184 111.395 41.588 112.931 41.9341 114.658L53.186 170.925C53.4454 172.216 54.486 173.207 55.7892 173.403C57.0708 173.587 58.3739 172.953 59.0028 171.793L76.7673 138.803C76.8923 138.571 77.1013 138.425 77.2724 138.236C77.2861 138.167 77.2994 138.099 77.2994 138.099L199.103 15.0012C198.716 14.609 198.241 14.3508 197.734 14.2051Z" fill="#8B8996"/>
</g>
</g>
</g>
<defs>
<clipPath id="clip0">
<rect width="200" height="200" fill="white"/>
</clipPath>
</defs>
</svg>
