<svg width="36" height="71" viewBox="0 0 36 71" fill="none" xmlns="http://www.w3.org/2000/svg">
<g id="rocket 1" clip-path="url(#clip0)">
<g id="rocket-flame">
<path id="Vector" d="M12.3799 46.976C12.2228 54.1329 14.4477 67.0609 17.5385 67.1284C20.6282 67.1965 23.4172 54.3803 23.5733 47.2205L12.3799 46.976Z" fill="#FFD464"/>
<path id="Vector_2" d="M13.5579 47.0017C13.4008 54.1587 15.2529 60.006 17.6925 60.0592C20.1328 60.1127 22.2376 54.352 22.3951 47.1955L13.5579 47.0017Z" fill="#F2B255"/>
</g>
<g id="rocket">
<path id="Vector_3" d="M14.7883 44.6716C14.7744 45.3212 14.769 46.1367 14.7888 47.0288L21.1665 47.1685C21.2257 46.2774 21.2543 45.4614 21.269 44.8121C21.2837 44.1627 21.2887 43.3475 21.2692 42.4559L14.8925 42.3156C14.832 43.2067 14.8017 44.0224 14.7883 44.6716V44.6716Z" fill="#BF5347"/>
<g id="Group 2">
<path id="Vector_4" d="M10.3201 33.3742C8.56597 32.7465 6.1587 35.0515 4.29966 39.1363C3.05762 42.0557 3.45327 50.9059 4.00393 52.6863C4.55459 54.4667 7.1757 52.3225 7.56426 51.5853C8.17964 50.4194 8.30837 44.528 8.32147 43.9399C8.33477 43.351 10.1268 42.211 11.3316 41.0582C10.78 39.2784 10.2948 34.5519 10.3201 33.3742V33.3742Z" fill="#CC584C"/>
<path id="Vector_5" d="M25.6379 33.7105C27.4185 33.159 29.7228 35.5674 31.3998 39.7304C32.5123 42.7023 31.7299 51.5266 31.1032 53.2802C30.4755 55.0364 27.9509 52.7782 27.5951 52.0261C27.031 50.8333 27.1607 44.9434 27.1736 44.354C27.1869 43.7651 25.4453 42.5483 24.2917 41.3446C24.9191 39.5879 25.6118 34.888 25.6379 33.7105V33.7105Z" fill="#CC584C"/>
<path id="Vector_6" d="M18.7007 0.550776C16.9323 0.512643 9.14605 6.23644 8.84751 19.7874C8.60283 30.9816 10.74 41.0472 11.3032 42.2385C13.0717 42.278 17.784 42.3803 17.784 42.3803C17.784 42.3803 22.4971 42.4827 24.2645 42.5215C24.8807 41.3558 27.4682 30.8034 27.7017 20.1982C27.9967 6.64804 20.467 0.590959 18.7007 0.550776V0.550776Z" fill="#E6E6E6"/>
<path id="Vector_7" d="M21.4147 23.2357C24.1823 21.5233 25.0378 17.8916 23.3254 15.124C21.6131 12.3564 17.9814 11.5009 15.2138 13.2133C12.4462 14.9256 11.5907 18.5573 13.303 21.3249C15.0154 24.0926 18.6471 24.948 21.4147 23.2357Z" fill="#263740"/>
<path id="Vector_8" d="M18.2362 21.7597C16.2873 21.7154 14.7367 20.0963 14.7784 18.1476C14.822 16.1977 16.4409 14.6479 18.3911 14.6886C20.3392 14.7327 21.8893 16.3521 21.8488 18.3015C21.806 20.2516 20.187 21.8014 18.2362 21.7597V21.7597Z" fill="#C2E2F2"/>
<path id="Vector_9" d="M18.5488 7.61864C20.7123 7.66593 22.7723 7.22223 24.6255 6.39374C22.4213 2.43701 19.6811 0.570638 18.7034 0.547087C17.7246 0.527592 14.906 2.27292 12.5299 6.1281C14.3453 7.03732 16.3849 7.57084 18.5488 7.61864V7.61864Z" fill="#CC584C"/>
<path id="Vector_10" d="M25.367 46.0809C25.3525 46.7294 24.8108 47.2482 24.1625 47.2342L11.2025 46.9512C10.5536 46.9362 10.0348 46.3944 10.0488 45.7462L10.1014 43.3895C10.1162 42.7415 10.6571 42.2225 11.3062 42.2367L24.2663 42.521C24.9154 42.5352 25.4334 43.0768 25.4205 43.7257L25.367 46.0809Z" fill="#CC584C"/>
<path id="Vector_11" d="M18.2526 34.7232C17.1138 34.6983 16.0927 39.1619 15.9718 44.6929C15.851 50.2239 16.6762 54.7279 17.815 54.7528C18.9538 54.7777 19.9749 50.3141 20.0958 44.783C20.2167 39.252 19.3915 34.7481 18.2526 34.7232Z" fill="#CC584C"/>
</g>
</g>
</g>
<defs>
<clipPath id="clip0">
<rect width="36" height="71" fill="white"/>
</clipPath>
</defs>
</svg>
