<?xml version="1.0" encoding="UTF-8"?>
<svg width="570mm" height="228mm" version="1.1" viewBox="0 0 570 228" xmlns="http://www.w3.org/2000/svg" xmlns:cc="http://creativecommons.org/ns#" xmlns:dc="http://purl.org/dc/elements/1.1/" xmlns:rdf="http://www.w3.org/1999/02/22-rdf-syntax-ns#">
 <metadata>
  <rdf:RDF>
   <cc:Work rdf:about="">
    <dc:format>image/svg+xml</dc:format>
    <dc:type rdf:resource="http://purl.org/dc/dcmitype/StillImage"/>
    <dc:title/>
   </cc:Work>
  </rdf:RDF>
 </metadata>
 <path d="m0.12692 212.39c4.1852-14.23 0.93841-4.4777 9.7976-24.727 1.8989-4.3403 3.4111-8.8612 5.5986-13.063 8.9621-17.217 22.915-38.393 34.525-52.72 6.5094-8.0329 14.26-14.975 21.461-22.394 28.857-29.731 25.499-29.633 67.65-51.321 50.451-25.958 87.914-43.318 145.56-47.588 40.067-2.9679 83.092 9.3287 119.9 23.328 30.479 11.591 54.179 24.975 77.448 48.055 8.5904 8.5206 14.543 19.342 21.928 28.926 7.2343 9.3893 14.242 18.97 21.928 27.993 6.6353 7.7892 14.769 14.274 20.995 22.394 9.3556 12.203 19.721 37.831 22.394 51.321 1.3609 6.8664-0.0853 14.005-0.46657 20.995-0.0864 1.5836 0.51073 4.0092-0.9331 4.6655-2.8316 1.2871-6.2214 0.0648-9.331 0-4.3563-0.0908-8.7076-0.35626-13.063-0.46654-20.216-0.51181-40.437-0.83987-60.652-1.3997-84.729-2.3463-85.712 6.2291-158.16-26.127-24.744-11.051-28.69-17.229-40.123-37.324-1.6867-2.9645-3.432-6.0076-4.199-9.3311-0.14711-0.63746-0.51059-11.392 0.93311-13.063 2.1754-2.5189 5.1065-4.3054 7.9314-6.0652 6.68-4.1613 13.253-8.6614 20.528-11.664 2.7352-1.1288 5.9167-0.21022 8.8645-0.46655 8.1881-0.71201 16.046-1.8662 24.261-1.8662" fill="none" stroke="#000" stroke-width=".26458px"/>
</svg>
